<svg width="25" height="25" viewBox="0 0 25 25" fill="none" xmlns="http://www.w3.org/2000/svg">
<path d="M12.5 0C5.59519 0 0 5.59615 0 12.5C0 19.4038 5.59519 25 12.5 25C19.4029 25 25 19.4038 25 12.5C25 5.59615 19.4038 0 12.5 0ZM12.399 22.6221C6.82308 22.6221 2.30288 18.1019 2.30288 12.526C2.30288 6.95 6.82308 2.42981 12.399 2.42981C17.974 2.42981 22.4952 6.95 22.4952 12.526C22.4952 18.1019 17.974 22.6221 12.399 22.6221ZM15.3173 13.1067H12.4519V8.26827C12.4519 7.74327 12.026 7.31635 11.501 7.31635C10.976 7.31635 10.549 7.74231 10.549 8.26827V14.0577C10.549 14.5837 10.975 15.0087 11.501 15.0087H15.3173C15.8433 15.0087 16.2692 14.5837 16.2692 14.0577C16.2692 13.5327 15.8433 13.1067 15.3173 13.1067Z" fill="#495E57"/>
</svg>
