<svg width="25" height="22" viewBox="0 0 25 22" fill="none" xmlns="http://www.w3.org/2000/svg">
<g clip-path="url(#clip0_2_151)">
<path d="M7.28481 4.33007C8.06577 4.33007 8.69907 3.78759 8.69907 3.11824V1.21146C8.69907 0.542488 8.06577 0 7.28481 0C6.50342 0 5.87012 0.542488 5.87012 1.21146V3.11828C5.87012 3.78759 6.50342 4.33007 7.28481 4.33007Z" fill="#495E57"/>
<path d="M17.7156 4.33007C18.4966 4.33007 19.1298 3.78759 19.1298 3.11824V1.21146C19.1299 0.542488 18.4966 0 17.7156 0C16.9342 0 16.3009 0.542488 16.3009 1.21146V3.11828C16.3009 3.78759 16.9342 4.33007 17.7156 4.33007Z" fill="#495E57"/>
<path d="M21.2482 1.72687H20.373V3.11822C20.373 4.37372 19.1809 5.39491 17.7156 5.39491C16.25 5.39491 15.0579 4.37372 15.0579 3.11822V1.72687H9.94214V3.11822C9.94214 4.37372 8.75005 5.39491 7.28481 5.39491C5.81919 5.39491 4.627 4.37372 4.627 3.11822V1.72687H3.75176C1.87051 1.72687 0.34536 3.03327 0.34536 4.6448V18.4971C0.34536 20.1086 1.87056 21.4151 3.75176 21.4151H21.2482C23.1295 21.4151 24.6546 20.1086 24.6546 18.4971V4.6448C24.6546 3.03331 23.1294 1.72687 21.2482 1.72687ZM21.9738 17.9848C21.9738 18.7304 21.2656 19.337 20.3952 19.337H4.60478C3.73437 19.337 3.02622 18.7304 3.02622 17.9848V7.1471H21.9738L21.9738 17.9848Z" fill="#495E57"/>
<path d="M11.8125 15.5497H9.31293V17.6909H11.8125V15.5497Z" fill="#495E57"/>
<path d="M11.8125 12.2308H9.31293V14.3719H11.8125V12.2308Z" fill="#495E57"/>
<path d="M7.93828 15.5497H5.43877V17.6909H7.93828V15.5497Z" fill="#495E57"/>
<path d="M7.93828 12.2308H5.43877V14.3719H7.93828V12.2308Z" fill="#495E57"/>
<path d="M19.5612 8.9118H17.0617V11.0529H19.5612V8.9118Z" fill="#495E57"/>
<path d="M15.6875 8.9118H13.1875V11.0529H15.6875V8.9118Z" fill="#495E57"/>
<path d="M15.6875 12.2308H13.1875V14.3719H15.6875V12.2308Z" fill="#495E57"/>
<path d="M19.5612 15.5497H17.0617V17.6909H19.5612V15.5497Z" fill="#495E57"/>
<path d="M19.5612 12.2308H17.0617V14.3719H19.5612V12.2308Z" fill="#495E57"/>
<path d="M15.6875 15.5497H13.1875V17.6909H15.6875V15.5497Z" fill="#495E57"/>
<path d="M11.8125 8.9118H9.31293V11.0529H11.8125V8.9118Z" fill="#495E57"/>
<path d="M7.93828 8.9118H5.43877V11.0529H7.93828V8.9118Z" fill="#495E57"/>
</g>
<defs>
<clipPath id="clip0_2_151">
<rect width="25" height="21.4151" fill="white"/>
</clipPath>
</defs>
</svg>
