<svg width="26" height="23" viewBox="0 0 26 23" fill="none" xmlns="http://www.w3.org/2000/svg">
<path fill-rule="evenodd" clip-rule="evenodd" d="M12.319 7.90202C10.1367 6.20345 6.71579 6.97999 3.8213 6.70654C4.29408 5.43041 4.92583 4.04035 5.62158 2.57141C6.23682 1.27075 6.24301 1.2725 7.38677 1.4811C7.59735 1.51966 7.83684 1.56349 8.07839 1.6038L11.8895 2.24186C12.0815 2.28744 12.224 2.35931 12.321 2.45572C12.4201 2.55388 12.4841 2.6836 12.5151 2.84662C12.4965 3.31991 12.4883 3.84403 12.48 4.39094C12.4635 5.49878 12.4449 6.71355 12.319 7.90202ZM18.1079 21.6922C17.7343 21.7535 17.373 21.5449 17.3007 21.2277C17.2284 20.9104 17.4741 20.6036 17.8478 20.5423L20.7526 20.0655L19.5118 14.9154C19.0886 14.9505 18.6819 14.9452 18.2958 14.8997C17.4452 14.7997 16.6937 14.5105 16.0393 14.0372C14.2245 12.7278 13.5185 10.591 13.2336 8.36129C12.9486 10.5892 12.2426 12.726 10.4278 14.0372C9.77131 14.5105 9.01982 14.7997 8.17129 14.8997C7.78522 14.9452 7.38057 14.9505 6.95528 14.9154L5.62984 20.4213L8.4211 20.8806C8.79479 20.9419 9.04047 21.2487 8.96821 21.566C8.89595 21.8833 8.53465 22.0919 8.16097 22.0305L1.19314 20.8859C0.819455 20.8245 0.573775 20.5177 0.646034 20.2005C0.718293 19.8832 1.07959 19.6746 1.45327 19.7359L4.2755 20.1987L5.60507 14.6823C5.55552 14.67 5.50597 14.656 5.45436 14.642C5.4461 14.6402 5.43784 14.6385 5.42958 14.635C2.70232 13.8812 1.82489 12.237 2.0107 9.98098C2.18412 7.86696 3.32994 5.21656 4.72557 2.2664C5.64636 0.324177 5.65462 0.325929 7.58703 0.678265C7.7749 0.713323 7.98961 0.751888 8.26213 0.797463L12.0815 1.43728C12.0919 1.43903 12.1022 1.44078 12.1125 1.44254C12.511 1.53193 12.8206 1.6932 13.0519 1.92108C13.12 1.98944 13.1799 2.06131 13.2336 2.13844C13.2852 2.06131 13.3471 1.98769 13.4152 1.92108C13.6465 1.6932 13.9582 1.53193 14.3546 1.44254C14.3649 1.44078 14.3752 1.43903 14.3856 1.43728L18.205 0.797463C18.4775 0.751888 18.6922 0.713323 18.8801 0.678265C20.8125 0.325929 20.8208 0.324177 21.7395 2.2664C23.1372 5.21656 24.2809 7.86696 24.4543 9.98098C24.6402 12.2352 23.7627 13.8812 21.0355 14.635C21.0272 14.6367 21.0189 14.6385 21.0107 14.642C20.9611 14.656 20.9095 14.6683 20.86 14.6823L22.1028 19.8446L24.8136 19.3994C25.1873 19.338 25.5486 19.5466 25.6208 19.8639C25.6931 20.1812 25.4474 20.4879 25.0737 20.5493L18.1079 21.6922ZM15.9319 10.9346C15.8762 10.8136 15.9464 10.6786 16.0888 10.6313C16.2313 10.584 16.3902 10.6436 16.446 10.7645C16.799 11.527 17.2883 12.088 17.8953 12.4736C18.5002 12.8558 19.229 13.0679 20.0651 13.1292C20.2179 13.1397 20.3294 13.2537 20.317 13.3834C20.3046 13.5131 20.1704 13.6078 20.0176 13.5972C19.0803 13.5271 18.2566 13.287 17.565 12.8505C16.8775 12.4123 16.3262 11.783 15.9319 10.9346ZM14.1688 8.09484C17.3048 6.8941 20.5565 5.59869 22.2267 5.64252C21.8241 4.66965 21.3513 3.64069 20.8455 2.57141C20.2303 1.27075 20.2241 1.2725 19.0803 1.4811C18.8698 1.51966 18.6303 1.56349 18.3887 1.6038L14.5796 2.24186C14.3876 2.28744 14.2452 2.35931 14.1481 2.45572C14.049 2.55388 13.985 2.6836 13.9541 2.84662C13.9727 3.31991 13.9809 3.84403 13.9892 4.39094C14.0036 5.55838 14.0222 6.84502 14.1688 8.09484ZM10.6838 9.87756C10.7045 9.74959 10.8449 9.6602 10.9956 9.67948C11.1463 9.69701 11.2516 9.8162 11.2289 9.94417C11.074 10.8452 10.7086 11.5656 10.1533 12.1248C9.59789 12.6857 8.86085 13.0801 7.96897 13.329C7.82445 13.3694 7.66755 13.3027 7.62006 13.18C7.57258 13.0573 7.65103 12.9241 7.79555 12.8838C8.59452 12.6612 9.24692 12.3141 9.73209 11.8233C10.2214 11.3325 10.5435 10.6909 10.6838 9.87756Z" fill="#495E57"/>
</svg>
