<svg width="26" height="13" viewBox="0 0 26 13" fill="none" xmlns="http://www.w3.org/2000/svg">
<path d="M13.3739 12.7347C13.7335 12.7347 14.0931 12.6126 14.3376 12.3806L25.4855 2.69556C25.73 2.48796 25.8739 2.21929 25.8739 1.91392C25.8739 1.27887 25.2985 0.790344 24.5505 0.790344C24.2053 0.790344 23.8601 0.912488 23.6156 1.10785L13.3739 9.999L3.13225 1.10785C2.88768 0.912488 2.55688 0.790344 2.19729 0.790344C1.44927 0.790344 0.873901 1.27887 0.873901 1.91392C0.873901 2.21929 1.01776 2.48796 1.26227 2.70776L12.4102 12.3806C12.6835 12.6126 12.9999 12.7347 13.3739 12.7347Z" fill="#495E57"/>
</svg>
